<svg width="98" height="136" viewBox="0 0 98 136" fill="none" xmlns="http://www.w3.org/2000/svg">
<g clip-path="url(#clip0_54949_25201)">
<path d="M48 127.5C61.4205 127.5 72.3 116.621 72.3 103.2C72.3 89.7795 61.4205 78.9 48 78.9C34.5794 78.9 23.7 89.7795 23.7 103.2C23.7 116.621 34.5794 127.5 48 127.5Z" fill="white"/>
<path d="M48.8999 22.8L32.1 0.599976H0.199951L48.8999 65.4L64.8999 43.8L48.8999 22.7V22.8Z" fill="#45C269"/>
<path d="M65.2999 0.599976L48.8999 22.7L64.8999 43.8L97.3999 0.599976H65.2999Z" fill="#20A651"/>
<path opacity="0.5" d="M51.4999 19.2999L48.8999 22.6999L64.8999 43.7999L67.9999 39.7999L51.4999 19.2999Z" fill="#006D30"/>
<path d="M48.8998 86.8C45.8998 86.8 43.5999 89.2 43.5999 92.1V97.3H54.1998H54.2999V92.1C54.1999 89.1 51.7998 86.8 48.8998 86.8Z" fill="#45C269"/>
<path d="M48.8998 65.5C29.6998 65.5 14.0999 81 14.0999 100.3C14.0999 119.6 29.5998 135.1 48.8998 135.1C68.1998 135.1 83.6998 119.6 83.6998 100.3C83.6998 81 68.0998 65.5 48.8998 65.5ZM63.8998 114.9C63.8998 117 62.0998 118.8 59.9998 118.8H37.6998C35.5998 118.8 33.7999 117 33.7999 114.9V101.5C33.7999 99.4 35.5998 97.6 37.6998 97.6H38.2999V92.4C38.2999 86.5 42.9998 81.7 48.8998 81.7C54.7998 81.7 59.5999 86.6 59.5999 92.4V97.6H60.1998C62.4998 97.6 64.1999 99.4 64.0999 101.5L63.8998 114.9Z" fill="#45C269"/>
<path d="M45.0998 104.5C44.9998 104.4 44.9998 104.3 44.9998 104.1C44.9998 103.9 45.0997 103.7 45.3997 103.6L47.6998 101.7C48.0998 101.5 48.4998 101.2 48.9998 101.2H50.2998C50.4998 101.2 50.7997 101.3 50.8997 101.4C50.9997 101.5 51.0998 101.8 51.0998 102V113.4C51.0998 113.6 50.9997 113.9 50.8997 114C50.6997 114.1 50.4998 114.2 50.2998 114.2H48.5998C48.3998 114.2 48.0998 114.1 47.9998 114C47.8998 113.9 47.7998 113.6 47.7998 113.4V104.5L46.6998 105.3C46.5998 105.4 46.4998 105.4 46.1998 105.4C46.0998 105.4 45.9998 105.3 45.7998 105.2L45.0998 104.5Z" fill="#45C269"/>
</g>
<defs>
<clipPath id="clip0_54949_25201">
<rect width="98" height="136" fill="white"/>
</clipPath>
</defs>
</svg>
